No Ordinary Future  Aired 3/26/2011

General
Complete name                    : No Ordinary Family S01E19 HDTV_JHW.mp4
Format                           : MPEG-4
Format profile                   : Base Media / Version 2
Codec ID                         : mp42
File size                        : 330 MiB
Duration                         : 41mn 35s
Overall bit rate                 : 1 109 Kbps
Encoded date                     : UTC 2011-03-26 04:39:17
Tagged date                      : UTC 2011-03-26 04:39:17
Writing library                  : AVS 

Video
ID                               : 1
Format                           : AVC
Format/Info                      : Advanced Video Codec
Format profile                   : Main@L5.1
Format settings, CABAC           : Yes
Format settings, ReFrames        : 2 frames
Codec ID                         : avc1
Codec ID/Info                    : Advanced Video Coding
Duration                         : 41mn 35s
Bit rate mode                    : Variable
Bit rate                         : 994 Kbps
Width                            : 720 pixels
Height                           : 400 pixels
Display aspect ratio             : 16:9
Frame rate mode                  : Constant
Frame rate                       : 29.970 fps
Color space                      : YUV
Chroma subsampling               : 4:2:0
Bit depth                        : 8 bits
Scan type                        : Progressive
Bits/(Pixel*Frame)               : 0.115
Stream size                      : 296 MiB (90%)
Language                         : English
Encoded date                     : UTC 2011-03-26 04:39:17
Tagged date                      : UTC 2011-03-26 04:39:17

Audio
ID                               : 2
Format                           : AAC
Format/Info                      : Advanced Audio Codec
Format profile                   : LC
Codec ID                         : 40
Duration                         : 41mn 35s
Bit rate mode                    : Constant
Bit rate                         : 106 Kbps
Nominal bit rate                 : 96.0 Kbps
Channel(s)                       : 2 channels
Channel positions                : Front: L R
Sampling rate                    : 48.0 KHz
Compression mode                 : Lossy
Stream size                      : 31.6 MiB (10%)
Language                         : English
Encoded date                     : UTC 2011-03-26 04:39:17
Tagged date                      : UTC 2011-03-26 04:39:17

[img]http://img835.imageshack.us/img835/5708/vlcsnap2011032700h48m11.png[/img]

[img]http://img148.imageshack.us/img148/6386/vlcsnap2011032700h48m51.png[/img]

[img]http://img862.imageshack.us/img862/629/vlcsnap2011032700h49m19.png[/img]

[img]http://img853.imageshack.us/img853/7823/vlcsnap2011032700h49m20.png[/img]